<svg xmlns="http://www.w3.org/2000/svg" viewBox="0 0 400 500"><defs><linearGradient id="g" x1="0" y1="0" x2="1" y2="1"><stop offset="0" stop-color="#FCE4EC"/><stop offset="1" stop-color="#E3E8FF"/></linearGradient></defs><rect width="400" height="500" fill="url(#g)"/><circle cx="90" cy="110" r="60" fill="#F8BBD0" opacity=".5"/><circle cx="320" cy="400" r="80" fill="#C5CAE9" opacity=".5"/><path d="M80 500c10-90 60-140 120-140s110 50 120 140z" fill="#9FA8DA"/><ellipse cx="200" cy="230" rx="78" ry="92" fill="#F5D0C0"/><path d="M118 230c-10-90 40-140 90-140 60 0 95 50 80 140-10-50-40-80-85-85-40 5-70 35-85 85z" fill="#6D4C41"/><circle cx="172" cy="235" r="7" fill="#3E2723"/><circle cx="228" cy="235" r="7" fill="#3E2723"/><path d="M180 280q20 14 40 0" stroke="#C0726A" stroke-width="5" fill="none" stroke-linecap="round"/></svg>
