<svg xmlns="http://www.w3.org/2000/svg" viewBox="0 0 400 500"><defs><linearGradient id="s" x1="0" y1="0" x2="0" y2="1"><stop offset="0" stop-color="#FFC48C"/><stop offset="1" stop-color="#FFE7C2"/></linearGradient></defs><rect width="400" height="500" fill="url(#s)"/><circle cx="110" cy="130" r="40" fill="#FFF6E0"/><rect y="210" width="400" height="160" fill="#1FA2A6"/><path d="M0 260c60-60 140-80 200-40s100 60 200 0v110H0z" fill="#38C3C0"/><path d="M0 300c80-30 120 10 200 0s120-40 200-10v80H0z" fill="#7EE0D6"/><path d="M60 250c20-20 50-20 60 0M220 230c20-20 50-20 60 0" stroke="#fff" stroke-width="6" fill="none" stroke-linecap="round"/><rect y="370" width="400" height="130" fill="#EBCB98"/><path d="M0 370c80 20 160-10 240 10s120 0 160-10v20H0z" fill="#fff" opacity=".7"/><circle cx="200" cy="300" r="40" fill="#171A26" opacity=".45"/><path d="M188 282v36l30-18z" fill="#fff"/></svg>
