<svg xmlns="http://www.w3.org/2000/svg" viewBox="0 0 400 500"><rect width="400" height="500" fill="#0F1230"/><circle cx="60" cy="50" r="2" fill="#fff"/><circle cx="300" cy="40" r="2" fill="#fff"/><circle cx="200" cy="80" r="1.5" fill="#fff"/><rect x="20" y="160" width="70" height="260" fill="#1D2250"/><rect x="100" y="100" width="80" height="320" fill="#262C66"/><rect x="190" y="190" width="60" height="230" fill="#1D2250"/><rect x="260" y="130" width="110" height="290" fill="#232A5E"/><g fill="#FFD166" opacity=".85"><rect x="115" y="120" width="12" height="8"/><rect x="145" y="140" width="12" height="8"/><rect x="115" y="180" width="12" height="8"/><rect x="280" y="160" width="12" height="8"/><rect x="320" y="200" width="12" height="8"/><rect x="40" y="200" width="10" height="8"/><rect x="205" y="220" width="10" height="8"/><rect x="340" y="260" width="12" height="8"/></g><rect x="270" y="150" width="60" height="16" rx="3" fill="#FF4FA3"/><rect x="30" y="250" width="40" height="12" rx="3" fill="#3BE8FF"/><rect y="420" width="400" height="80" fill="#14183D"/><path d="M0 450h400" stroke="#FF5A5A" stroke-width="4"/><path d="M0 470h400" stroke="#FFE08A" stroke-width="4"/><circle cx="200" cy="300" r="40" fill="#fff" opacity=".2"/><path d="M188 282v36l30-18z" fill="#fff"/></svg>
